<?xml version="1.0" standalone="no"?>
<!DOCTYPE svg PUBLIC "-//W3C//DTD SVG 20010904//EN"
 "http://www.w3.org/TR/2001/REC-SVG-20010904/DTD/svg10.dtd">
<svg version="1.0" xmlns="http://www.w3.org/2000/svg"
 width="600.000000pt" height="600.000000pt" viewBox="0 0 600.000000 600.000000"
 preserveAspectRatio="xMidYMid meet">
<metadata>
Created by potrace 1.11, written by Peter Selinger 2001-2013
</metadata>
<g transform="translate(0.000000,600.000000) scale(0.100000,-0.100000)"
fill="#000000" stroke="none">
<path d="M2818 5996 c-1 -2 -41 -6 -88 -10 -83 -6 -120 -10 -190 -22 -19 -4
-48 -8 -65 -11 -145 -22 -391 -91 -565 -158 -561 -218 -1063 -621 -1397 -1120
-99 -148 -125 -193 -208 -363 -137 -280 -233 -587 -271 -867 -3 -16 -6 -43 -9
-60 -31 -193 -25 -654 10 -845 3 -14 10 -53 15 -87 6 -34 12 -68 15 -75 2 -7
6 -24 9 -38 13 -79 89 -328 133 -435 291 -720 812 -1280 1493 -1608 198 -95
473 -191 635 -223 11 -2 43 -8 70 -14 63 -12 99 -18 150 -26 22 -3 51 -8 65
-10 154 -25 688 -25 762 1 7 2 33 6 58 9 72 8 138 21 285 55 432 102 888 339
1240 645 128 111 313 305 395 415 14 18 34 45 46 59 156 203 351 567 426 797
43 133 103 358 112 420 4 23 9 52 11 65 3 14 8 43 11 65 3 22 7 51 10 65 25
149 25 608 0 760 -3 14 -7 43 -10 65 -9 64 -24 146 -36 200 -6 28 -13 57 -15
65 -41 198 -179 550 -295 752 -75 129 -218 343 -264 395 -6 6 -36 42 -66 79
-54 65 -240 256 -314 322 -399 352 -955 616 -1466 697 -19 3 -42 8 -50 10 -8
2 -44 7 -80 10 -36 4 -74 9 -85 12 -22 5 -471 13 -477 9z"/>
</g>
</svg>
